<?xml version="1.0" encoding="utf-8"?>
<!-- Generator: Adobe Illustrator 27.0.0, SVG Export Plug-In . SVG Version: 6.00 Build 0)  -->
<svg version="1.1" id="Layer_1" xmlns="http://www.w3.org/2000/svg" xmlns:xlink="http://www.w3.org/1999/xlink" x="0px" y="0px"
	 viewBox="0 0 512 512" style="enable-background:new 0 0 512 512;" xml:space="preserve">
<style type="text/css">
	.st0{fill:#EE2722;}
</style>
<g id="XMLID_1_">
	<path id="XMLID_19_" class="st0" d="M364.16,255.98c0-0.42-0.14-0.98-0.56-1.26c-0.42-0.28-0.84-0.42-1.26-0.42h-2.1l-16.28,37.04
		l-4.21-19.78c-0.28-1.68-1.68-2.95-3.23-2.81h-2.81L320.8,291.2l0.14-34.94c0-0.42-0.14-0.98-0.56-1.4
		c-0.42-0.28-0.84-0.42-1.26-0.42h-2.81v42.09h3.51l0,0h0.14c0.98,0,1.96-0.28,2.67-0.84c0.7-0.56,1.26-1.12,1.82-1.96l11.22-20.06
		l4.63,23.01h2.95h0.14c1.96,0,3.51-1.12,4.35-3.09l16.28-36.48C364.02,256.55,364.16,256.26,364.16,255.98 M512.04,254.3h-17.4
		c-8.14,0-8.98,6.73-8.98,9.82c0,3.37,2.39,5.89,3.65,7.02l11.79,11.5c1.4,1.4,2.1,2.95,2.1,4.49c0,2.53-1.96,4.63-5.05,4.63h-15.43
		c-0.56,0.14-0.98,0.7-0.98,1.26l0,0l0,0v3.09h16.98c8.14,0,8.98-6.73,8.98-9.82l0,0c0-4.35-3.93-7.72-4.07-7.72l-11.22-11.08
		c-1.4-1.4-2.24-2.81-2.24-4.35c0-2.53,1.96-4.63,5.05-4.63h15.57v0.14v-0.14c0.56-0.14,0.98-0.7,0.98-1.26l0,0
		C512.04,257.39,512.04,254.86,512.04,254.3 M388.15,258.51c-7.72-0.42-16.56,4.07-19.5,16.42c-2.95,12.07,2.53,17.82,10.1,18.8
		h0.84c7.86,0.42,16.13-4.07,19.08-16.42C401.48,265.38,395.87,259.21,388.15,258.51 M403.16,277.73
		c-2.81,11.93-11.5,21.33-25.25,20.34l0,0c-12.77-1.54-16.42-12.77-13.75-23.57c2.95-11.93,11.5-21.33,25.11-20.34l0,0
		C401.9,255.7,405.69,266.93,403.16,277.73 M479.63,254.72c-0.42-0.28-0.7-0.28-1.12-0.28h-2.1l-21.61,18.38l2.95-16.42
		c0.14-0.84-0.28-1.54-0.56-1.82c-0.42-0.28-0.84-0.42-1.26-0.42h-2.1l-7.86,42.09h4.63l3.37-18.66l17.12,18.66h2.1
		c0.42,0,0.84,0,1.12-0.28c0.42-0.28,0.56-0.7,0.56-1.12c0-0.7-0.56-1.54-0.56-1.54l-16.28-17.54l21.61-18.38
		c0,0,0.56-0.56,0.56-1.54C480.19,255.42,480.05,255,479.63,254.72 M436.27,260.61c-0.84-0.84-2.1-1.26-4.07-1.54
		c-0.56-0.14-1.4-0.14-2.39-0.28c-2.39-0.14-9.54,0-11.79,0l-2.81,15.29c1.68,0,3.51,0,4.91,0c3.79,0,7.3-0.14,9.96-0.84
		C436.55,271.56,439.92,264.12,436.27,260.61 M440.48,258.09c1.82,2.1,1.96,6.03,1.54,8.56c-0.7,2.95-3.51,10.52-14.03,11.36
		l8.98,15.29c0,0,0.56,0.98,0.56,1.54c0,0.42-0.14,0.84-0.56,1.12c-0.42,0.28-0.7,0.28-1.12,0.28h-2.39l-10.52-18.1h-8.42
		l-3.23,18.1h-4.63l7.86-42.09h10.8C431.64,254.3,437.26,254.44,440.48,258.09 M129.57,263.28c-0.56,3.37,0.56,7.3,4.35,9.96
		l13.47,9.4c1.4,0.98,2.1,1.68,1.96,2.81c-0.28,1.54-1.12,2.24-3.93,2.24h-15.71c-1.68,0-2.53,0.84-2.95,2.67v5.89h18.24
		c8,0,12.07-4.77,12.77-9.82c0.7-4.77-0.84-8.14-3.93-10.24l-14.31-10.1c-1.12-0.84-1.4-1.26-1.4-1.82c0.14-0.98,1.12-1.4,2.67-1.4
		h16.28c1.96,0,3.09-2.1,3.51-4.07v-4.49h-21.61C134.48,254.16,130.42,258.37,129.57,263.28 M292.18,254.16h-22.59l-0.14,0.7
		c-0.56,2.81-0.28,6.17,4.21,6.17h16.7c6.59,0,9.12,4.77,7.58,13.75c-1.54,8.28-5.89,14.59-12.77,14.59h-9.12l4.35-23.71h-7.58
		c-0.98,0-1.82,0.7-1.82,1.4l-5.33,29.04h17.68c13.05,0,22.17-6.17,24.97-21.75C310.56,262.44,305.65,254.16,292.18,254.16
		 M238.45,289.38h-17.82l6.17-33.81c0.14-0.7-0.42-1.4-1.26-1.4h-7.86l-7.72,42.09h29.6l0.7-4.21
		C240.83,290.08,240.13,289.38,238.45,289.38 M260.76,254.16h-7.86l-7.72,42.09h9.4l7.44-40.69
		C262.16,254.86,261.6,254.16,260.76,254.16 M188.08,261.32c-8.56,0-13.05,4.91-14.59,14.73c-1.54,9.82,1.26,14.73,9.82,14.73
		s13.05-4.91,14.59-14.73S196.64,261.32,188.08,261.32 M207.16,276.05c-1.96,11.93-10.1,21.89-25.11,21.89s-19.78-9.96-17.82-21.89
		c1.96-11.93,10.1-21.89,25.11-21.89C204.21,254.16,209.12,264.12,207.16,276.05 M97.86,239.43c-8.98-1.4-24.97-1.96-30.31,6.31
		c-4.21,6.45,3.79,15.29,10.94,23.85c5.75,6.87,12.21,13.47,9.54,17.26c-2.1,3.09-15.57,3.09-20.34,3.37
		c-5.61,0.28-13.75,0.28-15.29,1.12c-1.26,0.7-1.96,2.81,2.81,3.65c3.79,0.7,13.05,2.1,22.73,2.1c10.1,0,20.62-1.68,23.01-9.4
		c1.82-6.31-4.49-13.05-10.24-19.78c-6.17-7.44-12.35-12.77-11.93-18.1c0.42-4.07,8.42-4.35,21.89-4.63c2.81,0,8.28-0.14,7.3-2.39
		C107.12,240.97,102.92,240.27,97.86,239.43 M56.76,258.09c-5.75-3.93-15.99-5.19-24.41-4.77c-7.44,0.42-20.34,2.81-19.92,5.19
		c0.42,2.53,8.56,1.82,12.35,1.82c8.28,0,21.19,0.56,23.29,5.75c4.49,11.36-25.53,31.85-31.99,29.88
		c-2.95-0.84,5.89-15.71,9.12-21.05c1.82-3.23,4.77-8.28,2.39-8.56c-2.81-0.42-5.75,4.35-7.72,7.02
		c-5.33,7.44-10.8,15.43-15.15,23.71c-1.4,2.53-5.89,10.24-4.35,11.22c1.4,0.98,8.28-0.42,16.98-3.79
		c27.5-10.8,39.85-24.97,43.07-36.76C61.53,263.56,59.56,260.05,56.76,258.09 M36.27,208.14c-0.56-1.82,8.56-4.21,18.66-4.63
		c10.1-0.42,22.03,1.54,24.27,8.28c3.65,10.94-14.87,26.94-31.01,34.65c-3.93,1.96-6.31,2.39-7.3,2.24
		c-0.98-0.14-1.12-0.98-0.84-1.68c0.56-1.12,3.23-3.51,6.59-6.03c18.1-13.33,24.13-23.01,20.62-26.94
		c-2.24-2.53-11.36-4.35-21.05-4.35C43.85,209.82,36.97,210.39,36.27,208.14"/>
</g>
</svg>
